0
SECTION
2
ENTITIES
0
3DFACE
8
0
10
-390.0
20
-390.0
30
-692.8203
11
390.0
21
-390.0
31
-692.8203
12
390.0
22
390.0
32
-692.8203
13
390.0001
23
390.0001
33
-692.8202
0
3DFACE
8
0
10
390.0
20
390.0
30
-692.8203
11
-390.0
21
390.0
31
-692.8203
12
-390.0
22
-390.0
32
-692.8203
13
-389.9999
23
-389.9999
33
-692.8202
0
LINE
8
0
10
-390.0
20
351.0
30
-692.8203
11
-312.0
21
351.0
31
-692.8203
0
LINE
8
0
10
-351.0
20
312.0
30
-692.8203
11
-351.0
21
390.0
31
-692.8203
0
LINE
8
0
10
-312.0
20
351.0
30
-692.8203
11
-234.0
21
351.0
31
-692.8203
0
LINE
8
0
10
-273.0
20
312.0
30
-692.8203
11
-273.0
21
390.0
31
-692.8203
0
LINE
8
0
10
-234.0
20
351.0
30
-692.8203
11
-156.0
21
351.0
31
-692.8203
0
LINE
8
0
10
-195.0
20
312.0
30
-692.8203
11
-195.0
21
390.0
31
-692.8203
0
LINE
8
0
10
-156.0
20
351.0
30
-692.8203
11
-78.0
21
351.0
31
-692.8203
0
LINE
8
0
10
-117.0
20
312.0
30
-692.8203
11
-117.0
21
390.0
31
-692.8203
0
LINE
8
0
10
-78.0
20
351.0
30
-692.8203
11
0.0
21
351.0
31
-692.8203
0
LINE
8
0
10
-39.0
20
312.0
30
-692.8203
11
-39.0
21
390.0
31
-692.8203
0
LINE
8
0
10
0.0
20
351.0
30
-692.8203
11
78.0
21
351.0
31
-692.8203
0
LINE
8
0
10
39.0
20
312.0
30
-692.8203
11
39.0
21
390.0
31
-692.8203
0
LINE
8
0
10
78.0
20
351.0
30
-692.8203
11
156.0
21
351.0
31
-692.8203
0
LINE
8
0
10
117.0
20
312.0
30
-692.8203
11
117.0
21
390.0
31
-692.8203
0
LINE
8
0
10
156.0
20
351.0
30
-692.8203
11
234.0
21
351.0
31
-692.8203
0
LINE
8
0
10
195.0
20
312.0
30
-692.8203
11
195.0
21
390.0
31
-692.8203
0
LINE
8
0
10
234.0
20
351.0
30
-692.8203
11
312.0
21
351.0
31
-692.8203
0
LINE
8
0
10
273.0
20
312.0
30
-692.8203
11
273.0
21
390.0
31
-692.8203
0
LINE
8
0
10
312.0
20
351.0
30
-692.8203
11
390.0
21
351.0
31
-692.8203
0
LINE
8
0
10
351.0
20
312.0
30
-692.8203
11
351.0
21
390.0
31
-692.8203
0
LINE
8
0
10
-390.0
20
273.0
30
-692.8203
11
-312.0
21
273.0
31
-692.8203
0
LINE
8
0
10
-351.0
20
234.0
30
-692.8203
11
-351.0
21
312.0
31
-692.8203
0
LINE
8
0
10
-312.0
20
273.0
30
-692.8203
11
-234.0
21
273.0
31
-692.8203
0
LINE
8
0
10
-273.0
20
234.0
30
-692.8203
11
-273.0
21
312.0
31
-692.8203
0
LINE
8
0
10
-234.0
20
273.0
30
-692.8203
11
-156.0
21
273.0
31
-692.8203
0
LINE
8
0
10
-195.0
20
234.0
30
-692.8203
11
-195.0
21
312.0
31
-692.8203
0
LINE
8
0
10
-156.0
20
273.0
30
-692.8203
11
-78.0
21
273.0
31
-692.8203
0
LINE
8
0
10
-117.0
20
234.0
30
-692.8203
11
-117.0
21
312.0
31
-692.8203
0
LINE
8
0
10
-78.0
20
273.0
30
-692.8203
11
0.0
21
273.0
31
-692.8203
0
LINE
8
0
10
-39.0
20
234.0
30
-692.8203
11
-39.0
21
312.0
31
-692.8203
0
LINE
8
0
10
0.0
20
273.0
30
-692.8203
11
78.0
21
273.0
31
-692.8203
0
LINE
8
0
10
39.0
20
234.0
30
-692.8203
11
39.0
21
312.0
31
-692.8203
0
LINE
8
0
10
78.0
20
273.0
30
-692.8203
11
156.0
21
273.0
31
-692.8203
0
LINE
8
0
10
117.0
20
234.0
30
-692.8203
11
117.0
21
312.0
31
-692.8203
0
LINE
8
0
10
156.0
20
273.0
30
-692.8203
11
234.0
21
273.0
31
-692.8203
0
LINE
8
0
10
195.0
20
234.0
30
-692.8203
11
195.0
21
312.0
31
-692.8203
0
LINE
8
0
10
234.0
20
273.0
30
-692.8203
11
312.0
21
273.0
31
-692.8203
0
LINE
8
0
10
273.0
20
234.0
30
-692.8203
11
273.0
21
312.0
31
-692.8203
0
LINE
8
0
10
312.0
20
273.0
30
-692.8203
11
390.0
21
273.0
31
-692.8203
0
LINE
8
0
10
351.0
20
234.0
30
-692.8203
11
351.0
21
312.0
31
-692.8203
0
LINE
8
0
10
-390.0
20
195.0
30
-692.8203
11
-312.0
21
195.0
31
-692.8203
0
LINE
8
0
10
-351.0
20
156.0
30
-692.8203
11
-351.0
21
234.0
31
-692.8203
0
LINE
8
0
10
-312.0
20
195.0
30
-692.8203
11
-234.0
21
195.0
31
-692.8203
0
LINE
8
0
10
-273.0
20
156.0
30
-692.8203
11
-273.0
21
234.0
31
-692.8203
0
LINE
8
0
10
-234.0
20
195.0
30
-692.8203
11
-156.0
21
195.0
31
-692.8203
0
LINE
8
0
10
-195.0
20
156.0
30
-692.8203
11
-195.0
21
234.0
31
-692.8203
0
LINE
8
0
10
-156.0
20
195.0
30
-692.8203
11
-78.0
21
195.0
31
-692.8203
0
LINE
8
0
10
-117.0
20
156.0
30
-692.8203
11
-117.0
21
234.0
31
-692.8203
0
LINE
8
0
10
-78.0
20
195.0
30
-692.8203
11
0.0
21
195.0
31
-692.8203
0
LINE
8
0
10
-39.0
20
156.0
30
-692.8203
11
-39.0
21
234.0
31
-692.8203
0
LINE
8
0
10
0.0
20
195.0
30
-692.8203
11
78.0
21
195.0
31
-692.8203
0
LINE
8
0
10
39.0
20
156.0
30
-692.8203
11
39.0
21
234.0
31
-692.8203
0
LINE
8
0
10
78.0
20
195.0
30
-692.8203
11
156.0
21
195.0
31
-692.8203
0
LINE
8
0
10
117.0
20
156.0
30
-692.8203
11
117.0
21
234.0
31
-692.8203
0
LINE
8
0
10
156.0
20
195.0
30
-692.8203
11
234.0
21
195.0
31
-692.8203
0
LINE
8
0
10
195.0
20
156.0
30
-692.8203
11
195.0
21
234.0
31
-692.8203
0
LINE
8
0
10
234.0
20
195.0
30
-692.8203
11
312.0
21
195.0
31
-692.8203
0
LINE
8
0
10
273.0
20
156.0
30
-692.8203
11
273.0
21
234.0
31
-692.8203
0
LINE
8
0
10
312.0
20
195.0
30
-692.8203
11
390.0
21
195.0
31
-692.8203
0
LINE
8
0
10
351.0
20
156.0
30
-692.8203
11
351.0
21
234.0
31
-692.8203
0
LINE
8
0
10
-390.0
20
117.0
30
-692.8203
11
-312.0
21
117.0
31
-692.8203
0
LINE
8
0
10
-351.0
20
78.0
30
-692.8203
11
-351.0
21
156.0
31
-692.8203
0
LINE
8
0
10
-312.0
20
117.0
30
-692.8203
11
-234.0
21
117.0
31
-692.8203
0
LINE
8
0
10
-273.0
20
78.0
30
-692.8203
11
-273.0
21
156.0
31
-692.8203
0
LINE
8
0
10
-234.0
20
117.0
30
-692.8203
11
-156.0
21
117.0
31
-692.8203
0
LINE
8
0
10
-195.0
20
78.0
30
-692.8203
11
-195.0
21
156.0
31
-692.8203
0
LINE
8
0
10
-156.0
20
117.0
30
-692.8203
11
-78.0
21
117.0
31
-692.8203
0
LINE
8
0
10
-117.0
20
78.0
30
-692.8203
11
-117.0
21
156.0
31
-692.8203
0
LINE
8
0
10
-78.0
20
117.0
30
-692.8203
11
0.0
21
117.0
31
-692.8203
0
LINE
8
0
10
-39.0
20
78.0
30
-692.8203
11
-39.0
21
156.0
31
-692.8203
0
LINE
8
0
10
0.0
20
117.0
30
-692.8203
11
78.0
21
117.0
31
-692.8203
0
LINE
8
0
10
39.0
20
78.0
30
-692.8203
11
39.0
21
156.0
31
-692.8203
0
LINE
8
0
10
78.0
20
117.0
30
-692.8203
11
156.0
21
117.0
31
-692.8203
0
LINE
8
0
10
117.0
20
78.0
30
-692.8203
11
117.0
21
156.0
31
-692.8203
0
LINE
8
0
10
156.0
20
117.0
30
-692.8203
11
234.0
21
117.0
31
-692.8203
0
LINE
8
0
10
195.0
20
78.0
30
-692.8203
11
195.0
21
156.0
31
-692.8203
0
LINE
8
0
10
234.0
20
117.0
30
-692.8203
11
312.0
21
117.0
31
-692.8203
0
LINE
8
0
10
273.0
20
78.0
30
-692.8203
11
273.0
21
156.0
31
-692.8203
0
LINE
8
0
10
312.0
20
117.0
30
-692.8203
11
390.0
21
117.0
31
-692.8203
0
LINE
8
0
10
351.0
20
78.0
30
-692.8203
11
351.0
21
156.0
31
-692.8203
0
LINE
8
0
10
-390.0
20
39.0
30
-692.8203
11
-312.0
21
39.0
31
-692.8203
0
LINE
8
0
10
-351.0
20
0.0
30
-692.8203
11
-351.0
21
78.0
31
-692.8203
0
LINE
8
0
10
-312.0
20
39.0
30
-692.8203
11
-234.0
21
39.0
31
-692.8203
0
LINE
8
0
10
-273.0
20
0.0
30
-692.8203
11
-273.0
21
78.0
31
-692.8203
0
LINE
8
0
10
-234.0
20
39.0
30
-692.8203
11
-156.0
21
39.0
31
-692.8203
0
LINE
8
0
10
-195.0
20
0.0
30
-692.8203
11
-195.0
21
78.0
31
-692.8203
0
LINE
8
0
10
-156.0
20
39.0
30
-692.8203
11
-78.0
21
39.0
31
-692.8203
0
LINE
8
0
10
-117.0
20
0.0
30
-692.8203
11
-117.0
21
78.0
31
-692.8203
0
LINE
8
0
10
-78.0
20
39.0
30
-692.8203
11
0.0
21
39.0
31
-692.8203
0
LINE
8
0
10
-39.0
20
0.0
30
-692.8203
11
-39.0
21
78.0
31
-692.8203
0
LINE
8
0
10
0.0
20
39.0
30
-692.8203
11
78.0
21
39.0
31
-692.8203
0
LINE
8
0
10
39.0
20
0.0
30
-692.8203
11
39.0
21
78.0
31
-692.8203
0
LINE
8
0
10
78.0
20
39.0
30
-692.8203
11
156.0
21
39.0
31
-692.8203
0
LINE
8
0
10
117.0
20
0.0
30
-692.8203
11
117.0
21
78.0
31
-692.8203
0
LINE
8
0
10
156.0
20
39.0
30
-692.8203
11
234.0
21
39.0
31
-692.8203
0
LINE
8
0
10
195.0
20
0.0
30
-692.8203
11
195.0
21
78.0
31
-692.8203
0
LINE
8
0
10
234.0
20
39.0
30
-692.8203
11
312.0
21
39.0
31
-692.8203
0
LINE
8
0
10
273.0
20
0.0
30
-692.8203
11
273.0
21
78.0
31
-692.8203
0
LINE
8
0
10
312.0
20
39.0
30
-692.8203
11
390.0
21
39.0
31
-692.8203
0
LINE
8
0
10
351.0
20
0.0
30
-692.8203
11
351.0
21
78.0
31
-692.8203
0
LINE
8
0
10
-390.0
20
-39.0
30
-692.8203
11
-312.0
21
-39.0
31
-692.8203
0
LINE
8
0
10
-351.0
20
-78.0
30
-692.8203
11
-351.0
21
0.0
31
-692.8203
0
LINE
8
0
10
-312.0
20
-39.0
30
-692.8203
11
-234.0
21
-39.0
31
-692.8203
0
LINE
8
0
10
-273.0
20
-78.0
30
-692.8203
11
-273.0
21
0.0
31
-692.8203
0
LINE
8
0
10
-234.0
20
-39.0
30
-692.8203
11
-156.0
21
-39.0
31
-692.8203
0
LINE
8
0
10
-195.0
20
-78.0
30
-692.8203
11
-195.0
21
0.0
31
-692.8203
0
LINE
8
0
10
-156.0
20
-39.0
30
-692.8203
11
-78.0
21
-39.0
31
-692.8203
0
LINE
8
0
10
-117.0
20
-78.0
30
-692.8203
11
-117.0
21
0.0
31
-692.8203
0
LINE
8
0
10
-78.0
20
-39.0
30
-692.8203
11
0.0
21
-39.0
31
-692.8203
0
LINE
8
0
10
-39.0
20
-78.0
30
-692.8203
11
-39.0
21
0.0
31
-692.8203
0
LINE
8
0
10
0.0
20
-39.0
30
-692.8203
11
78.0
21
-39.0
31
-692.8203
0
LINE
8
0
10
39.0
20
-78.0
30
-692.8203
11
39.0
21
0.0
31
-692.8203
0
LINE
8
0
10
78.0
20
-39.0
30
-692.8203
11
156.0
21
-39.0
31
-692.8203
0
LINE
8
0
10
117.0
20
-78.0
30
-692.8203
11
117.0
21
0.0
31
-692.8203
0
LINE
8
0
10
156.0
20
-39.0
30
-692.8203
11
234.0
21
-39.0
31
-692.8203
0
LINE
8
0
10
195.0
20
-78.0
30
-692.8203
11
195.0
21
0.0
31
-692.8203
0
LINE
8
0
10
234.0
20
-39.0
30
-692.8203
11
312.0
21
-39.0
31
-692.8203
0
LINE
8
0
10
273.0
20
-78.0
30
-692.8203
11
273.0
21
0.0
31
-692.8203
0
LINE
8
0
10
312.0
20
-39.0
30
-692.8203
11
390.0
21
-39.0
31
-692.8203
0
LINE
8
0
10
351.0
20
-78.0
30
-692.8203
11
351.0
21
0.0
31
-692.8203
0
LINE
8
0
10
-390.0
20
-117.0
30
-692.8203
11
-312.0
21
-117.0
31
-692.8203
0
LINE
8
0
10
-351.0
20
-156.0
30
-692.8203
11
-351.0
21
-78.0
31
-692.8203
0
LINE
8
0
10
-312.0
20
-117.0
30
-692.8203
11
-234.0
21
-117.0
31
-692.8203
0
LINE
8
0
10
-273.0
20
-156.0
30
-692.8203
11
-273.0
21
-78.0
31
-692.8203
0
LINE
8
0
10
-234.0
20
-117.0
30
-692.8203
11
-156.0
21
-117.0
31
-692.8203
0
LINE
8
0
10
-195.0
20
-156.0
30
-692.8203
11
-195.0
21
-78.0
31
-692.8203
0
LINE
8
0
10
-156.0
20
-117.0
30
-692.8203
11
-78.0
21
-117.0
31
-692.8203
0
LINE
8
0
10
-117.0
20
-156.0
30
-692.8203
11
-117.0
21
-78.0
31
-692.8203
0
LINE
8
0
10
-78.0
20
-117.0
30
-692.8203
11
0.0
21
-117.0
31
-692.8203
0
LINE
8
0
10
-39.0
20
-156.0
30
-692.8203
11
-39.0
21
-78.0
31
-692.8203
0
LINE
8
0
10
0.0
20
-117.0
30
-692.8203
11
78.0
21
-117.0
31
-692.8203
0
LINE
8
0
10
39.0
20
-156.0
30
-692.8203
11
39.0
21
-78.0
31
-692.8203
0
LINE
8
0
10
78.0
20
-117.0
30
-692.8203
11
156.0
21
-117.0
31
-692.8203
0
LINE
8
0
10
117.0
20
-156.0
30
-692.8203
11
117.0
21
-78.0
31
-692.8203
0
LINE
8
0
10
156.0
20
-117.0
30
-692.8203
11
234.0
21
-117.0
31
-692.8203
0
LINE
8
0
10
195.0
20
-156.0
30
-692.8203
11
195.0
21
-78.0
31
-692.8203
0
LINE
8
0
10
234.0
20
-117.0
30
-692.8203
11
312.0
21
-117.0
31
-692.8203
0
LINE
8
0
10
273.0
20
-156.0
30
-692.8203
11
273.0
21
-78.0
31
-692.8203
0
LINE
8
0
10
312.0
20
-117.0
30
-692.8203
11
390.0
21
-117.0
31
-692.8203
0
LINE
8
0
10
351.0
20
-156.0
30
-692.8203
11
351.0
21
-78.0
31
-692.8203
0
LINE
8
0
10
-390.0
20
-195.0
30
-692.8203
11
-312.0
21
-195.0
31
-692.8203
0
LINE
8
0
10
-351.0
20
-234.0
30
-692.8203
11
-351.0
21
-156.0
31
-692.8203
0
LINE
8
0
10
-312.0
20
-195.0
30
-692.8203
11
-234.0
21
-195.0
31
-692.8203
0
LINE
8
0
10
-273.0
20
-234.0
30
-692.8203
11
-273.0
21
-156.0
31
-692.8203
0
LINE
8
0
10
-234.0
20
-195.0
30
-692.8203
11
-156.0
21
-195.0
31
-692.8203
0
LINE
8
0
10
-195.0
20
-234.0
30
-692.8203
11
-195.0
21
-156.0
31
-692.8203
0
LINE
8
0
10
-156.0
20
-195.0
30
-692.8203
11
-78.0
21
-195.0
31
-692.8203
0
LINE
8
0
10
-117.0
20
-234.0
30
-692.8203
11
-117.0
21
-156.0
31
-692.8203
0
LINE
8
0
10
-78.0
20
-195.0
30
-692.8203
11
0.0
21
-195.0
31
-692.8203
0
LINE
8
0
10
-39.0
20
-234.0
30
-692.8203
11
-39.0
21
-156.0
31
-692.8203
0
LINE
8
0
10
0.0
20
-195.0
30
-692.8203
11
78.0
21
-195.0
31
-692.8203
0
LINE
8
0
10
39.0
20
-234.0
30
-692.8203
11
39.0
21
-156.0
31
-692.8203
0
LINE
8
0
10
78.0
20
-195.0
30
-692.8203
11
156.0
21
-195.0
31
-692.8203
0
LINE
8
0
10
117.0
20
-234.0
30
-692.8203
11
117.0
21
-156.0
31
-692.8203
0
LINE
8
0
10
156.0
20
-195.0
30
-692.8203
11
234.0
21
-195.0
31
-692.8203
0
LINE
8
0
10
195.0
20
-234.0
30
-692.8203
11
195.0
21
-156.0
31
-692.8203
0
LINE
8
0
10
234.0
20
-195.0
30
-692.8203
11
312.0
21
-195.0
31
-692.8203
0
LINE
8
0
10
273.0
20
-234.0
30
-692.8203
11
273.0
21
-156.0
31
-692.8203
0
LINE
8
0
10
312.0
20
-195.0
30
-692.8203
11
390.0
21
-195.0
31
-692.8203
0
LINE
8
0
10
351.0
20
-234.0
30
-692.8203
11
351.0
21
-156.0
31
-692.8203
0
LINE
8
0
10
-390.0
20
-273.0
30
-692.8203
11
-312.0
21
-273.0
31
-692.8203
0
LINE
8
0
10
-351.0
20
-312.0
30
-692.8203
11
-351.0
21
-234.0
31
-692.8203
0
LINE
8
0
10
-312.0
20
-273.0
30
-692.8203
11
-234.0
21
-273.0
31
-692.8203
0
LINE
8
0
10
-273.0
20
-312.0
30
-692.8203
11
-273.0
21
-234.0
31
-692.8203
0
LINE
8
0
10
-234.0
20
-273.0
30
-692.8203
11
-156.0
21
-273.0
31
-692.8203
0
LINE
8
0
10
-195.0
20
-312.0
30
-692.8203
11
-195.0
21
-234.0
31
-692.8203
0
LINE
8
0
10
-156.0
20
-273.0
30
-692.8203
11
-78.0
21
-273.0
31
-692.8203
0
LINE
8
0
10
-117.0
20
-312.0
30
-692.8203
11
-117.0
21
-234.0
31
-692.8203
0
LINE
8
0
10
-78.0
20
-273.0
30
-692.8203
11
0.0
21
-273.0
31
-692.8203
0
LINE
8
0
10
-39.0
20
-312.0
30
-692.8203
11
-39.0
21
-234.0
31
-692.8203
0
LINE
8
0
10
0.0
20
-273.0
30
-692.8203
11
78.0
21
-273.0
31
-692.8203
0
LINE
8
0
10
39.0
20
-312.0
30
-692.8203
11
39.0
21
-234.0
31
-692.8203
0
LINE
8
0
10
78.0
20
-273.0
30
-692.8203
11
156.0
21
-273.0
31
-692.8203
0
LINE
8
0
10
117.0
20
-312.0
30
-692.8203
11
117.0
21
-234.0
31
-692.8203
0
LINE
8
0
10
156.0
20
-273.0
30
-692.8203
11
234.0
21
-273.0
31
-692.8203
0
LINE
8
0
10
195.0
20
-312.0
30
-692.8203
11
195.0
21
-234.0
31
-692.8203
0
LINE
8
0
10
234.0
20
-273.0
30
-692.8203
11
312.0
21
-273.0
31
-692.8203
0
LINE
8
0
10
273.0
20
-312.0
30
-692.8203
11
273.0
21
-234.0
31
-692.8203
0
LINE
8
0
10
312.0
20
-273.0
30
-692.8203
11
390.0
21
-273.0
31
-692.8203
0
LINE
8
0
10
351.0
20
-312.0
30
-692.8203
11
351.0
21
-234.0
31
-692.8203
0
LINE
8
0
10
-390.0
20
-351.0
30
-692.8203
11
-312.0
21
-351.0
31
-692.8203
0
LINE
8
0
10
-351.0
20
-390.0
30
-692.8203
11
-351.0
21
-312.0
31
-692.8203
0
LINE
8
0
10
-312.0
20
-351.0
30
-692.8203
11
-234.0
21
-351.0
31
-692.8203
0
LINE
8
0
10
-273.0
20
-390.0
30
-692.8203
11
-273.0
21
-312.0
31
-692.8203
0
LINE
8
0
10
-234.0
20
-351.0
30
-692.8203
11
-156.0
21
-351.0
31
-692.8203
0
LINE
8
0
10
-195.0
20
-390.0
30
-692.8203
11
-195.0
21
-312.0
31
-692.8203
0
LINE
8
0
10
-156.0
20
-351.0
30
-692.8203
11
-78.0
21
-351.0
31
-692.8203
0
LINE
8
0
10
-117.0
20
-390.0
30
-692.8203
11
-117.0
21
-312.0
31
-692.8203
0
LINE
8
0
10
-78.0
20
-351.0
30
-692.8203
11
0.0
21
-351.0
31
-692.8203
0
LINE
8
0
10
-39.0
20
-390.0
30
-692.8203
11
-39.0
21
-312.0
31
-692.8203
0
LINE
8
0
10
0.0
20
-351.0
30
-692.8203
11
78.0
21
-351.0
31
-692.8203
0
LINE
8
0
10
39.0
20
-390.0
30
-692.8203
11
39.0
21
-312.0
31
-692.8203
0
LINE
8
0
10
78.0
20
-351.0
30
-692.8203
11
156.0
21
-351.0
31
-692.8203
0
LINE
8
0
10
117.0
20
-390.0
30
-692.8203
11
117.0
21
-312.0
31
-692.8203
0
LINE
8
0
10
156.0
20
-351.0
30
-692.8203
11
234.0
21
-351.0
31
-692.8203
0
LINE
8
0
10
195.0
20
-390.0
30
-692.8203
11
195.0
21
-312.0
31
-692.8203
0
LINE
8
0
10
234.0
20
-351.0
30
-692.8203
11
312.0
21
-351.0
31
-692.8203
0
LINE
8
0
10
273.0
20
-390.0
30
-692.8203
11
273.0
21
-312.0
31
-692.8203
0
LINE
8
0
10
312.0
20
-351.0
30
-692.8203
11
390.0
21
-351.0
31
-692.8203
0
LINE
8
0
10
351.0
20
-390.0
30
-692.8203
11
351.0
21
-312.0
31
-692.8203
0
LINE
8
0
10
-390.0
20
-390.0
30
-692.8203
11
390.0
21
-390.0
31
-692.8203
0
LINE
8
0
10
390.0
20
-390.0
30
-692.8203
11
390.0
21
390.0
31
-692.8203
0
LINE
8
0
10
390.0
20
390.0
30
-692.8203
11
-390.0
21
390.0
31
-692.8203
0
LINE
8
0
10
-390.0
20
390.0
30
-692.8203
11
-390.0
21
-390.0
31
-692.8203
0
LINE
8
0
10
-78.0
20
-390.0
30
-692.8203
11
-78.0
21
-312.0
31
-692.8203
0
LINE
8
0
10
156.0
20
-390.0
30
-692.8203
11
156.0
21
-312.0
31
-692.8203
0
LINE
8
0
10
-312.0
20
-312.0
30
-692.8203
11
-312.0
21
-234.0
31
-692.8203
0
LINE
8
0
10
-234.0
20
-312.0
30
-692.8203
11
-156.0
21
-312.0
31
-692.8203
0
LINE
8
0
10
-156.0
20
-312.0
30
-692.8203
11
-156.0
21
-234.0
31
-692.8203
0
LINE
8
0
10
-156.0
20
-312.0
30
-692.8203
11
-78.0
21
-312.0
31
-692.8203
0
LINE
8
0
10
0.0
20
-312.0
30
-692.8203
11
0.0
21
-234.0
31
-692.8203
0
LINE
8
0
10
78.0
20
-312.0
30
-692.8203
11
78.0
21
-234.0
31
-692.8203
0
LINE
8
0
10
78.0
20
-312.0
30
-692.8203
11
156.0
21
-312.0
31
-692.8203
0
LINE
8
0
10
234.0
20
-312.0
30
-692.8203
11
234.0
21
-234.0
31
-692.8203
0
LINE
8
0
10
234.0
20
-312.0
30
-692.8203
11
312.0
21
-312.0
31
-692.8203
0
LINE
8
0
10
-312.0
20
-234.0
30
-692.8203
11
-312.0
21
-156.0
31
-692.8203
0
LINE
8
0
10
-312.0
20
-234.0
30
-692.8203
11
-234.0
21
-234.0
31
-692.8203
0
LINE
8
0
10
-234.0
20
-234.0
30
-692.8203
11
-234.0
21
-156.0
31
-692.8203
0
LINE
8
0
10
-156.0
20
-234.0
30
-692.8203
11
-156.0
21
-156.0
31
-692.8203
0
LINE
8
0
10
-78.0
20
-234.0
30
-692.8203
11
-78.0
21
-156.0
31
-692.8203
0
LINE
8
0
10
-78.0
20
-234.0
30
-692.8203
11
0.0
21
-234.0
31
-692.8203
0
LINE
8
0
10
0.0
20
-234.0
30
-692.8203
11
0.0
21
-156.0
31
-692.8203
0
LINE
8
0
10
156.0
20
-234.0
30
-692.8203
11
156.0
21
-156.0
31
-692.8203
0
LINE
8
0
10
156.0
20
-234.0
30
-692.8203
11
234.0
21
-234.0
31
-692.8203
0
LINE
8
0
10
234.0
20
-234.0
30
-692.8203
11
234.0
21
-156.0
31
-692.8203
0
LINE
8
0
10
312.0
20
-234.0
30
-692.8203
11
390.0
21
-234.0
31
-692.8203
0
LINE
8
0
10
-312.0
20
-156.0
30
-692.8203
11
-312.0
21
-78.0
31
-692.8203
0
LINE
8
0
10
-234.0
20
-156.0
30
-692.8203
11
-234.0
21
-78.0
31
-692.8203
0
LINE
8
0
10
-78.0
20
-156.0
30
-692.8203
11
-78.0
21
-78.0
31
-692.8203
0
LINE
8
0
10
0.0
20
-156.0
30
-692.8203
11
78.0
21
-156.0
31
-692.8203
0
LINE
8
0
10
78.0
20
-156.0
30
-692.8203
11
156.0
21
-156.0
31
-692.8203
0
LINE
8
0
10
234.0
20
-156.0
30
-692.8203
11
234.0
21
-78.0
31
-692.8203
0
LINE
8
0
10
234.0
20
-156.0
30
-692.8203
11
312.0
21
-156.0
31
-692.8203
0
LINE
8
0
10
-312.0
20
-78.0
30
-692.8203
11
-312.0
21
0.0
31
-692.8203
0
LINE
8
0
10
-234.0
20
-78.0
30
-692.8203
11
-234.0
21
0.0
31
-692.8203
0
LINE
8
0
10
-156.0
20
-78.0
30
-692.8203
11
-78.0
21
-78.0
31
-692.8203
0
LINE
8
0
10
-78.0
20
-78.0
30
-692.8203
11
-78.0
21
0.0
31
-692.8203
0
LINE
8
0
10
0.0
20
-78.0
30
-692.8203
11
0.0
21
0.0
31
-692.8203
0
LINE
8
0
10
0.0
20
-78.0
30
-692.8203
11
78.0
21
-78.0
31
-692.8203
0
LINE
8
0
10
78.0
20
-78.0
30
-692.8203
11
156.0
21
-78.0
31
-692.8203
0
LINE
8
0
10
156.0
20
-78.0
30
-692.8203
11
234.0
21
-78.0
31
-692.8203
0
LINE
8
0
10
234.0
20
-78.0
30
-692.8203
11
234.0
21
0.0
31
-692.8203
0
LINE
8
0
10
312.0
20
-78.0
30
-692.8203
11
390.0
21
-78.0
31
-692.8203
0
LINE
8
0
10
-312.0
20
0.0
30
-692.8203
11
-312.0
21
78.0
31
-692.8203
0
LINE
8
0
10
-234.0
20
0.0
30
-692.8203
11
-234.0
21
78.0
31
-692.8203
0
LINE
8
0
10
-234.0
20
0.0
30
-692.8203
11
-156.0
21
0.0
31
-692.8203
0
LINE
8
0
10
0.0
20
0.0
30
-692.8203
11
0.0
21
78.0
31
-692.8203
0
LINE
8
0
10
78.0
20
0.0
30
-692.8203
11
78.0
21
78.0
31
-692.8203
0
LINE
8
0
10
78.0
20
0.0
30
-692.8203
11
156.0
21
0.0
31
-692.8203
0
LINE
8
0
10
234.0
20
0.0
30
-692.8203
11
234.0
21
78.0
31
-692.8203
0
LINE
8
0
10
234.0
20
0.0
30
-692.8203
11
312.0
21
0.0
31
-692.8203
0
LINE
8
0
10
-312.0
20
78.0
30
-692.8203
11
-312.0
21
156.0
31
-692.8203
0
LINE
8
0
10
-234.0
20
78.0
30
-692.8203
11
-156.0
21
78.0
31
-692.8203
0
LINE
8
0
10
-156.0
20
78.0
30
-692.8203
11
-78.0
21
78.0
31
-692.8203
0
LINE
8
0
10
-78.0
20
78.0
30
-692.8203
11
-78.0
21
156.0
31
-692.8203
0
LINE
8
0
10
0.0
20
78.0
30
-692.8203
11
0.0
21
156.0
31
-692.8203
0
LINE
8
0
10
78.0
20
78.0
30
-692.8203
11
78.0
21
156.0
31
-692.8203
0
LINE
8
0
10
156.0
20
78.0
30
-692.8203
11
234.0
21
78.0
31
-692.8203
0
LINE
8
0
10
312.0
20
78.0
30
-692.8203
11
312.0
21
156.0
31
-692.8203
0
LINE
8
0
10
-390.0
20
156.0
30
-692.8203
11
-312.0
21
156.0
31
-692.8203
0
LINE
8
0
10
-312.0
20
156.0
30
-692.8203
11
-234.0
21
156.0
31
-692.8203
0
LINE
8
0
10
-234.0
20
156.0
30
-692.8203
11
-156.0
21
156.0
31
-692.8203
0
LINE
8
0
10
-78.0
20
156.0
30
-692.8203
11
-78.0
21
234.0
31
-692.8203
0
LINE
8
0
10
0.0
20
156.0
30
-692.8203
11
0.0
21
234.0
31
-692.8203
0
LINE
8
0
10
78.0
20
156.0
30
-692.8203
11
78.0
21
234.0
31
-692.8203
0
LINE
8
0
10
78.0
20
156.0
30
-692.8203
11
156.0
21
156.0
31
-692.8203
0
LINE
8
0
10
156.0
20
156.0
30
-692.8203
11
234.0
21
156.0
31
-692.8203
0
LINE
8
0
10
234.0
20
156.0
30
-692.8203
11
312.0
21
156.0
31
-692.8203
0
LINE
8
0
10
312.0
20
156.0
30
-692.8203
11
312.0
21
234.0
31
-692.8203
0
LINE
8
0
10
-312.0
20
234.0
30
-692.8203
11
-234.0
21
234.0
31
-692.8203
0
LINE
8
0
10
-234.0
20
234.0
30
-692.8203
11
-234.0
21
312.0
31
-692.8203
0
LINE
8
0
10
-234.0
20
234.0
30
-692.8203
11
-156.0
21
234.0
31
-692.8203
0
LINE
8
0
10
-156.0
20
234.0
30
-692.8203
11
-78.0
21
234.0
31
-692.8203
0
LINE
8
0
10
0.0
20
234.0
30
-692.8203
11
0.0
21
312.0
31
-692.8203
0
LINE
8
0
10
78.0
20
234.0
30
-692.8203
11
78.0
21
312.0
31
-692.8203
0
LINE
8
0
10
78.0
20
234.0
30
-692.8203
11
156.0
21
234.0
31
-692.8203
0
LINE
8
0
10
156.0
20
234.0
30
-692.8203
11
234.0
21
234.0
31
-692.8203
0
LINE
8
0
10
312.0
20
234.0
30
-692.8203
11
312.0
21
312.0
31
-692.8203
0
LINE
8
0
10
-390.0
20
312.0
30
-692.8203
11
-312.0
21
312.0
31
-692.8203
0
LINE
8
0
10
-234.0
20
312.0
30
-692.8203
11
-156.0
21
312.0
31
-692.8203
0
LINE
8
0
10
-156.0
20
312.0
30
-692.8203
11
-78.0
21
312.0
31
-692.8203
0
LINE
8
0
10
-78.0
20
312.0
30
-692.8203
11
0.0
21
312.0
31
-692.8203
0
LINE
8
0
10
78.0
20
312.0
30
-692.8203
11
78.0
21
390.0
31
-692.8203
0
LINE
8
0
10
156.0
20
312.0
30
-692.8203
11
234.0
21
312.0
31
-692.8203
0
LINE
8
0
10
234.0
20
312.0
30
-692.8203
11
312.0
21
312.0
31
-692.8203
0
ENDSEC
0
EOF
